<svg width="0" height="0" class="hidden">

  <symbol xmlns="http://www.w3.org/2000/svg" fill="none" viewBox="0 0 180 32" id="logo">
    <path fill="currentColor" d="M1.056 20.256c.56 0 .928-.2 1.104-.6.176-.416.264-.992.264-1.728V.048h.984v17.904c0 .72.088 1.288.264 1.704.176.4.544.6 1.104.6h1.056v.24H0v-.24h1.056ZM6.144 8.76a16.693 16.693 0 0 0 3.696-.456c1.216-.288 2.296-.744 3.24-1.368a7.269 7.269 0 0 0 2.28-2.4c.592-.992.888-2.184.888-3.576 0-.16-.008-.312-.024-.456 0-.16-.008-.312-.024-.456h.96c.016.144.024.288.024.432.016.144.024.288.024.432 0 1.376-.28 2.552-.84 3.528a7.356 7.356 0 0 1-2.232 2.424c-.912.64-1.968 1.12-3.168 1.44-1.2.32-2.448.52-3.744.6.88.176 1.624.48 2.232.912a6.574 6.574 0 0 1 1.56 1.488c.448.56.824 1.176 1.128 1.848.32.656.624 1.312.912 1.968.288.672.584 1.32.888 1.944.32.608.688 1.152 1.104 1.632.432.464.936.84 1.512 1.128.592.288 1.312.432 2.16.432v.24c-1.04 0-1.928-.16-2.664-.48a6.378 6.378 0 0 1-1.92-1.272 9.06 9.06 0 0 1-1.368-1.824 36.861 36.861 0 0 1-1.08-2.088l-.984-2.112A9.907 9.907 0 0 0 9.6 10.872a5.557 5.557 0 0 0-1.464-1.344c-.544-.352-1.208-.544-1.992-.576V8.76ZM0 22.728v-.216h7.2c2.736 0 4.872.424 6.408 1.272 1.552.848 2.6 2.072 3.144 3.672h-.888a6.017 6.017 0 0 0-.984-1.944c-.432-.576-1-1.064-1.704-1.464-.688-.4-1.528-.712-2.52-.936-.976-.224-2.128-.352-3.456-.384H3.408v4.728h-.984V24.84c-.016-.672-.12-1.192-.312-1.56-.192-.368-.544-.552-1.056-.552H0ZM19.688.264V.048h5.832v.216h-1.056c-.288 0-.528.064-.72.192a1.238 1.238 0 0 0-.409.528c-.096.208-.16.456-.192.744-.032.272-.047.56-.047.864v13.68c.032 1.568.215 3.016.552 4.344.335 1.328.832 2.48 1.488 3.456a7.455 7.455 0 0 0 2.495 2.304c.992.544 2.16.824 3.505.84 1.392 0 2.6-.264 3.624-.792a7.23 7.23 0 0 0 2.544-2.16c.671-.912 1.167-1.976 1.487-3.192.337-1.232.505-2.544.505-3.936V2.592c0-.736-.096-1.304-.288-1.704-.177-.416-.537-.624-1.08-.624h-1.056v-.24h5.087v.24h-1.08c-.543 0-.904.208-1.08.624-.175.4-.264.968-.264 1.704v14.544c0 1.52-.183 2.912-.551 4.176-.369 1.264-.904 2.352-1.608 3.264a7.32 7.32 0 0 1-2.64 2.136c-1.04.496-2.24.744-3.6.744-1.345 0-2.576-.256-3.697-.768a7.917 7.917 0 0 1-2.831-2.208c-.785-.96-1.393-2.128-1.825-3.504-.431-1.392-.648-2.96-.648-4.704V2.592c0-.72-.096-1.288-.288-1.704-.175-.416-.544-.624-1.104-.624h-1.055Zm31.518 9.288c.976 0 1.88.128 2.712.384.848.256 1.584.64 2.208 1.152a5.254 5.254 0 0 1 1.464 1.944c.352.768.528 1.672.528 2.712a6.295 6.295 0 0 1-.456 2.28 5.853 5.853 0 0 1-1.128 1.848 5.507 5.507 0 0 1-1.728 1.272 5.91 5.91 0 0 1-2.136.528 6.825 6.825 0 0 1 2.04.552c.704.288 1.376.68 2.016 1.176a8.065 8.065 0 0 1 1.704 1.752 7.059 7.059 0 0 1 1.104 2.256h-1.032c-.224-.944-.592-1.76-1.104-2.448a7.197 7.197 0 0 0-1.728-1.752 7.082 7.082 0 0 0-2.064-1.08 7.44 7.44 0 0 0-2.136-.384h-4.656v5.664h-.984V11.88c0-.736-.088-1.264-.264-1.584-.176-.336-.544-.504-1.104-.504h-1.056v-.24h7.8Zm-4.392 11.976h4.776c1.792 0 3.168-.52 4.128-1.56.976-1.04 1.464-2.48 1.464-4.32 0-1.84-.536-3.272-1.608-4.296-1.056-1.04-2.52-1.56-4.392-1.56h-4.368v11.736Zm-3.408-14.16h1.056c.56 0 .928-.16 1.104-.48.176-.336.264-.872.264-1.608V.048h.984v7.32h4.872c1.04 0 1.992-.184 2.856-.552a6.655 6.655 0 0 0 2.208-1.56 6.847 6.847 0 0 0 1.44-2.304 7.871 7.871 0 0 0 .528-2.904h1.056c-.016 1.088-.216 2.096-.6 3.024a6.882 6.882 0 0 1-1.584 2.376c-.688.672-1.528 1.2-2.52 1.584-.992.368-2.112.552-3.36.552h-8.304v-.216ZM60.74.048h5.616v.216h-.744c-.608 0-.936.12-.984.36a1.853 1.853 0 0 0-.096.528c0 .384.104.792.312 1.224l.816 1.68c.304.608.616 1.256.936 1.944.32.672.648 1.368.984 2.088.336.704.656 1.392.96 2.064a409.262 409.262 0 0 0 2.304 4.824c.064-.128.216-.448.456-.96l.888-1.896c.352-.752.736-1.576 1.152-2.472.416-.912.832-1.816 1.248-2.712.432-.912.84-1.784 1.224-2.616.4-.832.744-1.544 1.032-2.136.16-.32.24-.632.24-.936 0-.112-.04-.312-.12-.6-.064-.256-.384-.384-.96-.384h-.768V.048h4.896v.216h-.672c-.608 0-1.072.16-1.392.48-.32.32-.616.752-.888 1.296-.208.464-.456 1.008-.744 1.632-.288.608-.6 1.264-.936 1.968L74.49 7.8l-1.032 2.16c-.384.832-.784 1.68-1.2 2.544-.4.848-.808 1.728-1.224 2.64v9.768c0 .72.088 1.28.264 1.68.192.384.56.576 1.104.576h1.056v.24h-5.832v-.24h1.056c.56 0 .928-.2 1.104-.6.192-.416.288-.992.288-1.728v-9.36a415.05 415.05 0 0 1-.672-1.44c-.32-.688-.696-1.472-1.128-2.352-.416-.896-.856-1.84-1.32-2.832-.464-.992-.912-1.928-1.344-2.808a923.82 923.82 0 0 0-1.104-2.328c-.32-.688-.544-1.16-.672-1.416-.288-.624-.6-1.12-.936-1.488-.336-.368-.832-.552-1.488-.552h-.672V.048Zm33.67 25.296c.224.56.616 1.032 1.176 1.416.56.368 1.2.552 1.92.552 1.04 0 1.832-.2 2.376-.6.56-.416.96-.912 1.2-1.488.256-.592.4-1.216.432-1.872.048-.656.08-1.232.096-1.728V2.328c-.032-.672-.144-1.184-.336-1.536-.176-.352-.52-.528-1.032-.528h-1.056V.048h5.832v.216h-1.08c-.512 0-.864.192-1.056.576-.192.368-.296.888-.312 1.56v19.2a13.8 13.8 0 0 1-.144 1.896 5.31 5.31 0 0 1-.672 1.944c-.352.592-.872 1.088-1.56 1.488-.688.4-1.624.6-2.808.6-1.008 0-1.824-.176-2.448-.528-.624-.368-1.168-.92-1.632-1.656h1.104Zm12.212-.096a13.027 13.027 0 0 1-.144-1.104 26.551 26.551 0 0 1-.024-1.152c0-1.92.336-3.712 1.008-5.376.688-1.68 1.632-3.136 2.832-4.368a13.133 13.133 0 0 1 4.296-2.928c1.648-.704 3.432-1.056 5.352-1.056 1.92 0 3.704.352 5.352 1.056a12.867 12.867 0 0 1 4.272 2.928c1.216 1.232 2.16 2.688 2.832 4.368.688 1.664 1.032 3.456 1.032 5.376 0 1.552-.224 3.024-.672 4.416h-1.32c.384-1.392.576-2.864.576-4.416 0-1.872-.28-3.624-.84-5.256-.56-1.632-1.368-3.056-2.424-4.272a11.125 11.125 0 0 0-3.792-2.904c-1.488-.704-3.16-1.056-5.016-1.056-1.856 0-3.528.352-5.016 1.056a11.37 11.37 0 0 0-3.816 2.904c-1.04 1.216-1.84 2.64-2.4 4.272-.56 1.632-.84 3.384-.84 5.256 0 1.552.192 3.024.576 4.416h-1.32a13.287 13.287 0 0 1-.504-2.16ZM108.229.264a1.052 1.052 0 0 1-.12-.216h1.2l.096.24a.94.94 0 0 1 .12.216 13.272 13.272 0 0 0 1.776 2.592 11.812 11.812 0 0 0 2.376 1.992c.88.544 1.84.968 2.88 1.272a12.18 12.18 0 0 0 3.384.456c1.2 0 2.32-.152 3.36-.456a11.587 11.587 0 0 0 2.904-1.272 11.25 11.25 0 0 0 2.352-1.992 12.714 12.714 0 0 0 1.8-2.592 2.86 2.86 0 0 1 .096-.216c.048-.08.088-.16.12-.24h1.2a1.68 1.68 0 0 1-.12.24.94.94 0 0 0-.12.216 12.623 12.623 0 0 1-2.088 2.688c-.8.8-1.696 1.488-2.688 2.064-.992.56-2.064 1-3.216 1.32a13.872 13.872 0 0 1-3.6.456c-1.264 0-2.472-.152-3.624-.456-1.136-.32-2.2-.76-3.192-1.32a13.646 13.646 0 0 1-2.712-2.064 13.05 13.05 0 0 1-2.064-2.688 1.68 1.68 0 0 0-.12-.24Zm25.424-.216h5.616v.216h-.744c-.608 0-.936.12-.984.36a1.853 1.853 0 0 0-.096.528c0 .384.104.792.312 1.224l.816 1.68c.304.608.616 1.256.936 1.944.32.672.648 1.368.984 2.088.336.704.656 1.392.96 2.064a409.262 409.262 0 0 0 2.304 4.824c.064-.128.216-.448.456-.96l.888-1.896c.352-.752.736-1.576 1.152-2.472.416-.912.832-1.816 1.248-2.712.432-.912.84-1.784 1.224-2.616.4-.832.744-1.544 1.032-2.136.16-.32.24-.632.24-.936 0-.112-.04-.312-.12-.6-.064-.256-.384-.384-.96-.384h-.768V.048h4.896v.216h-.672c-.608 0-1.072.16-1.392.48-.32.32-.616.752-.888 1.296-.208.464-.456 1.008-.744 1.632-.288.608-.6 1.264-.936 1.968l-1.008 2.16-1.032 2.16c-.384.832-.784 1.68-1.2 2.544-.4.848-.808 1.728-1.224 2.64v9.768c0 .72.088 1.28.264 1.68.192.384.56.576 1.104.576h1.056v.24h-5.832v-.24h1.056c.56 0 .928-.2 1.104-.6.192-.416.288-.992.288-1.728v-9.36a415.05 415.05 0 0 1-.672-1.44c-.32-.688-.696-1.472-1.128-2.352-.416-.896-.856-1.84-1.32-2.832-.464-.992-.912-1.928-1.344-2.808a923.82 923.82 0 0 0-1.104-2.328c-.32-.688-.544-1.16-.672-1.416-.288-.624-.6-1.12-.936-1.488-.336-.368-.832-.552-1.488-.552h-.672V.048Zm14.946 27.12c.384 0 .696-.048.936-.144a1.65 1.65 0 0 0 .648-.432 2.76 2.76 0 0 0 .456-.696c.128-.272.256-.576.384-.912l1.032-2.976c.4-1.168.832-2.416 1.296-3.744.48-1.328.968-2.696 1.464-4.104.496-1.424.984-2.808 1.464-4.152l1.704-4.872c.576-1.664 1.168-3.368 1.776-5.112h.024c.064.192.216.624.456 1.296.256.656.56 1.472.912 2.448.368.976.776 2.072 1.224 3.288.464 1.216.936 2.472 1.416 3.768.48 1.296.968 2.6 1.464 3.912.496 1.296.96 2.52 1.392 3.672.432 1.152.824 2.2 1.176 3.144.352.928.64 1.664.864 2.208l.36 1.008c.144.368.28.704.408 1.008.128.288.28.536.456.744.192.208.416.368.672.48.256.112.584.168.984.168h.672v.24h-5.616v-.24h.744c.64 0 .976-.12 1.008-.36.016-.128.024-.232.024-.312.016-.08.024-.136.024-.168 0-.384-.112-.872-.336-1.464a721.275 721.275 0 0 0-2.016-5.28 307.192 307.192 0 0 0-1.464-3.864 151.28 151.28 0 0 0-1.008-2.64c-.256-.704-.464-1.264-.624-1.68-.16-.432-.28-.744-.36-.936a6.512 6.512 0 0 0-.144-.432l-.144-.36a7.526 7.526 0 0 1-.216-.576c-.96.48-1.832 1.088-2.616 1.824a12.026 12.026 0 0 0-2.04 2.448c-.56.896-1 1.872-1.32 2.928a11.826 11.826 0 0 0-.456 3.288c0 1.632.304 3.168.912 4.608a12.122 12.122 0 0 0 2.544 3.744 11.785 11.785 0 0 0 3.744 2.52c1.44.624 2.976.936 4.608.936 1.552 0 2.984-.28 4.296-.84a10.792 10.792 0 0 0 3.432-2.304 11.263 11.263 0 0 0 2.376-3.432 12.7 12.7 0 0 0 1.056-4.272c.016-.08.024-.16.024-.24v-.264a8.3 8.3 0 0 0-.264-2.064 8.028 8.028 0 0 0-.792-2.04c-.368-.672-.8-1.288-1.296-1.848-.48-.56-1-1.072-1.56-1.536a18.551 18.551 0 0 0-1.92-1.416 66.986 66.986 0 0 0-1.968-1.248l-1.848-1.152a14.551 14.551 0 0 1-1.584-1.176 8.09 8.09 0 0 1-1.032-1.08 3.692 3.692 0 0 1-.576-1.248 4.55 4.55 0 0 1-.144-1.104c0-.384.08-.832.24-1.344.176-.512.536-1.008 1.08-1.488a4.616 4.616 0 0 1 1.8-.984A6.873 6.873 0 0 1 170.799 0h.336c.112 0 .224.008.336.024.72.08 1.344.256 1.872.528s.992.616 1.392 1.032c.16.16.296.328.408.504.128.16.256.328.384.504.096.128.24.192.432.192.032 0 .12-.008.264-.024.144-.016.328-.024.552-.024v3.768l-.24.024c-.032-.528-.144-1.136-.336-1.824a6.344 6.344 0 0 0-.888-1.992c-.4-.64-.92-1.192-1.56-1.656-.64-.464-1.432-.736-2.376-.816a1.112 1.112 0 0 0-.216-.024h-.216c-.464 0-.976.072-1.536.216a4.777 4.777 0 0 0-1.584.744c-.496.352-.864.76-1.104 1.224a3.076 3.076 0 0 0-.336 1.392v.288c.016.096.032.2.048.312.096.592.352 1.136.768 1.632.416.48.928.952 1.536 1.416.624.448 1.312.904 2.064 1.368.768.448 1.536.928 2.304 1.44a28.125 28.125 0 0 1 2.304 1.68 12.017 12.017 0 0 1 2.016 2.016 10.016 10.016 0 0 1 1.44 2.52c.384.912.6 1.952.648 3.12 0 1.664-.32 3.224-.96 4.68a12.055 12.055 0 0 1-2.568 3.816 11.983 11.983 0 0 1-3.84 2.568c-1.456.64-3.008.96-4.656.96-1.664 0-3.224-.32-4.68-.96a12.055 12.055 0 0 1-3.816-2.568 12.393 12.393 0 0 1-2.592-3.816c-.624-1.456-.936-3.016-.936-4.68 0-1.168.16-2.288.48-3.36.32-1.072.768-2.064 1.344-2.976a11.91 11.91 0 0 1 2.064-2.496 11.918 11.918 0 0 1 2.688-1.872 305.93 305.93 0 0 1-.912-2.4 83.909 83.909 0 0 0-.792-2.04 60.663 60.663 0 0 0-.576-1.512 48.33 48.33 0 0 1-.264-.744l-.12-.336c-.688 2-1.256 3.64-1.704 4.92-.448 1.28-.816 2.336-1.104 3.168a87.497 87.497 0 0 1-.72 2.016c-.176.512-.344.984-.504 1.416-.16.448-.328.928-.504 1.44a1037.689 1037.689 0 0 1-3.528 10.08c-.192.608-.288 1.096-.288 1.464v.168c.016.08.032.176.048.288.016.24.336.36.96.36h.768v.24h-4.896v-.24h.696Z"></path>
  </symbol>

  <symbol xmlns="http://www.w3.org/2000/svg" fill="none" viewBox="0 0 32 24" id="email">
    <g>
      <path stroke="currentColor" stroke-linecap="round" stroke-linejoin="round" stroke-width="2" d="M2.667 1h26.667C30.25 1 31 1.707 31 2.571V21.43c0 .864-.75 1.571-1.666 1.571H2.666C1.75 23 1 22.293 1 21.429V2.57C1 1.707 1.75 1 2.667 1Z"></path>
      <path stroke="currentColor" stroke-linecap="round" stroke-linejoin="round" stroke-width="2" d="M1 3.357 16 12l15-8.643"></path>
    </g>
  </symbol>
  <symbol xmlns="http://www.w3.org/2000/svg" fill="none" viewBox="0 0 20 38" id="facebook">
    <path fill="currentColor" d="M13.333 21.85h4.762L20 14.25h-6.667v-3.8c0-1.957 0-3.8 3.81-3.8H20V.266C19.379.184 17.034 0 14.558 0 9.387 0 5.714 3.148 5.714 8.93v5.32H0v7.6h5.714V38h7.62V21.85Z"></path>
  </symbol>
  <symbol xmlns="http://www.w3.org/2000/svg" fill="none" viewBox="0 0 20 19" id="heart">
    <path fill="currentColor" d="m10.1 15.55-.1.1-.11-.1C5.14 11.24 2 8.39 2 5.5 2 3.5 3.5 2 5.5 2c1.54 0 3.04 1 3.57 2.36h1.86C11.46 3 12.96 2 14.5 2c2 0 3.5 1.5 3.5 3.5 0 2.89-3.14 5.74-7.9 10.05ZM14.5 0c-1.74 0-3.41.81-4.5 2.08C8.91.81 7.24 0 5.5 0 2.42 0 0 2.41 0 5.5c0 3.77 3.4 6.86 8.55 11.53L10 18.35l1.45-1.32C16.6 12.36 20 9.27 20 5.5 20 2.41 17.58 0 14.5 0Z"></path>
  </symbol>
  <symbol xmlns="http://www.w3.org/2000/svg" fill="none" viewBox="0 0 38 38" id="instagram">
    <path fill="currentColor" d="M29.146 6.574a2.28 2.28 0 1 0 0 4.56 2.28 2.28 0 0 0 0-4.56Zm8.74 4.598a14.44 14.44 0 0 0-.874-4.617 9.309 9.309 0 0 0-2.204-3.363 8.93 8.93 0 0 0-3.363-2.185 13.87 13.87 0 0 0-4.617-.893C24.814 0 24.168 0 19 0s-5.814 0-7.828.114a13.87 13.87 0 0 0-4.617.893 9.12 9.12 0 0 0-3.363 2.185 8.93 8.93 0 0 0-2.185 3.363 13.87 13.87 0 0 0-.893 4.617C0 13.186 0 13.832 0 19s0 5.814.114 7.828a13.87 13.87 0 0 0 .893 4.617 8.93 8.93 0 0 0 2.185 3.363 9.12 9.12 0 0 0 3.363 2.185 13.87 13.87 0 0 0 4.617.893C13.186 38 13.832 38 19 38s5.814 0 7.828-.114a13.87 13.87 0 0 0 4.617-.893 8.929 8.929 0 0 0 3.363-2.185 9.215 9.215 0 0 0 2.204-3.363 14.44 14.44 0 0 0 .874-4.617c0-2.014.114-2.66.114-7.828s0-5.814-.114-7.828ZM34.466 26.6a10.64 10.64 0 0 1-.646 3.534 5.814 5.814 0 0 1-1.425 2.185 6.08 6.08 0 0 1-2.185 1.425 10.64 10.64 0 0 1-3.534.646c-1.9.095-2.603.114-7.6.114s-5.7 0-7.6-.114a10.83 10.83 0 0 1-3.686-.57 6.27 6.27 0 0 1-2.09-1.425 5.7 5.7 0 0 1-1.406-2.185 10.45 10.45 0 0 1-.76-3.61c0-1.9-.114-2.603-.114-7.6s0-5.7.114-7.6a10.45 10.45 0 0 1 .665-3.61A5.7 5.7 0 0 1 5.7 5.7a5.89 5.89 0 0 1 2.09-1.52 10.83 10.83 0 0 1 3.61-.646c1.9 0 2.603-.114 7.6-.114s5.7 0 7.6.114a10.64 10.64 0 0 1 3.534.646 5.81 5.81 0 0 1 2.261 1.52 5.889 5.889 0 0 1 1.425 2.09 10.64 10.64 0 0 1 .646 3.61c.095 1.9.114 2.603.114 7.6s-.019 5.7-.114 7.6ZM19 9.253A9.747 9.747 0 1 0 28.766 19 9.73 9.73 0 0 0 19 9.253Zm0 16.074a6.327 6.327 0 1 1 0-12.654 6.327 6.327 0 0 1 0 12.654Z"></path>
  </symbol>


  <symbol xmlns="http://www.w3.org/2000/svg" fill="none" viewBox="0 0 18 22" id="map">
    <path fill="currentColor" d="m9 18.9 4.95-4.95a7 7 0 1 0-9.9 0L9 18.9Zm0 2.828-6.364-6.364a9 9 0 1 1 12.728 0L9 21.728ZM9 11a2 2 0 1 0 0-4 2 2 0 0 0 0 4Zm0 2a4 4 0 1 1 0-8 4 4 0 0 1 0 8Z"></path>
  </symbol>


  <symbol xmlns="http://www.w3.org/2000/svg" fill="none" viewBox="0 0 18 12" id="menu">
    <path fill="currentColor" d="M0 12v-2h18v2H0Zm0-5V5h18v2H0Zm0-5V0h18v2H0Z"></path>
  </symbol>
  <symbol xmlns="http://www.w3.org/2000/svg" fill="none" viewBox="0 0 39 48" id="neck">
    <g>
      <path stroke="currentColor" stroke-linecap="round" stroke-linejoin="round" stroke-width="3" d="m26.7 34.384-7.2-5.192-7.2 5.192v6.923l7.2 5.193 7.2-5.193v-6.923Z"></path>
      <path stroke="currentColor" stroke-linecap="round" stroke-linejoin="round" stroke-width="3" d="M26.7 34.672c3.79-1.591 6.895-4.388 8.793-7.92a16.717 16.717 0 0 0 1.627-11.48c-.845-3.893-3.058-7.387-6.266-9.895C27.643 2.87 23.634 1.5 19.5 1.5c-4.135 0-8.145 1.37-11.353 3.877-3.21 2.508-5.422 6.003-6.267 9.895a16.718 16.718 0 0 0 1.627 11.48c1.898 3.532 5.003 6.329 8.793 7.92"></path>
    </g>
  </symbol>
  <symbol xmlns="http://www.w3.org/2000/svg" fill="none" viewBox="0 0 32 32" id="phone">
    <path stroke="currentColor" stroke-linecap="round" stroke-linejoin="round" stroke-width="2" d="M8.554 1c.863 0 4.316 7.77 4.316 8.633 0 1.727-2.59 3.453-3.453 5.18-.863 1.727.864 3.453 2.59 5.18.674.673 3.453 3.453 5.18 2.59 1.727-.864 3.453-3.453 5.18-3.453.863 0 8.633 3.453 8.633 4.316 0 3.453-2.59 6.043-5.18 6.906-2.59.864-4.316.864-7.77 0-3.453-.863-6.043-1.726-10.36-6.043-4.316-4.316-5.18-6.906-6.043-10.36-.863-3.453-.863-5.18 0-7.77C2.511 3.59 5.101 1 8.554 1Z"></path>
  </symbol>
  <symbol xmlns="http://www.w3.org/2000/svg" fill="none" viewBox="0 0 35 48" id="ring">
    <g>
      <path stroke="currentColor" stroke-width="3" d="M1.5 30.75a15.75 15.75 0 1 0 31.5 0 15.75 15.75 0 0 0-31.5 0Z"></path>
      <path stroke="currentColor" stroke-width="3" d="m17.25 15-9-9 4.5-4.5h4.5m0 13.5 9-9-4.5-4.5h-4.5"></path>
    </g>
  </symbol>
  <symbol xmlns="http://www.w3.org/2000/svg" fill="none" viewBox="0 0 18 22" id="user">
    <g>
      <path stroke="currentColor" stroke-width="1.5" d="M8.75 8.75a4 4 0 1 0 0-8 4 4 0 0 0 0 8Zm8 7.5c0 2.485 0 4.5-8 4.5s-8-2.015-8-4.5 3.582-4.5 8-4.5 8 2.015 8 4.5Z"></path>
    </g>
  </symbol>
  <symbol xmlns="http://www.w3.org/2000/svg" fill="none" viewBox="0 0 20 20" id="bag">
    <path fill="currentColor" fill-rule="evenodd" d="M6.19 1c.28-.59.884-1 1.583-1h4c.698 0 1.3.41 1.582 1 .683.006 1.216.037 1.692.223a3.25 3.25 0 0 1 1.426 1.09c.367.493.539 1.127.776 1.998l.037.136.59 2.167c.393.198.738.481 1.01.828.622.797.732 1.746.622 2.834-.108 1.056-.44 2.386-.856 4.051l-.027.105c-.263 1.053-.477 1.908-.73 2.575-.266.696-.602 1.266-1.157 1.699-.554.433-1.19.62-1.928.71-.71.084-1.59.084-2.675.084H7.41c-1.085 0-1.967 0-2.675-.085-.74-.088-1.374-.276-1.93-.71-.553-.432-.89-1.002-1.155-1.698-.254-.667-.467-1.522-.73-2.575l-.027-.105c-.416-1.665-.75-2.995-.856-4.05-.11-1.09 0-2.038.62-2.835.284-.362.623-.63 1.01-.828l.59-2.167.039-.136c.237-.871.409-1.505.776-1.999a3.25 3.25 0 0 1 1.426-1.089C4.975 1.037 5.507 1.005 6.19 1Zm.002 1.503c-.662.007-.927.032-1.147.118a1.75 1.75 0 0 0-.768.587c-.176.237-.28.568-.57 1.635l-.354 1.296C4.39 6 5.73 6 7.395 6h4.755c1.665 0 3.005 0 4.042.139l-.353-1.297c-.291-1.067-.394-1.398-.57-1.635a1.75 1.75 0 0 0-.768-.587c-.22-.086-.486-.111-1.148-.118a1.75 1.75 0 0 1-1.58.998h-4a1.75 1.75 0 0 1-1.58-.998M7.773 1.5a.25.25 0 0 0 0 .5h4a.25.25 0 1 0 0-.5h-4Zm-4.3 6.136c-.91.132-1.351.372-1.63.73-.28.357-.405.842-.312 1.758.095.936.4 2.16.834 3.9.278 1.108.47 1.876.69 2.45.21.554.417.847.677 1.05.259.202.593.331 1.183.402.61.073 1.4.074 2.544.074h4.63c1.143 0 1.935-.001 2.544-.074.59-.07.924-.2 1.183-.402.26-.203.466-.496.678-1.05.218-.574.41-1.342.688-2.45.435-1.74.74-2.964.834-3.9.094-.916-.032-1.402-.311-1.759-.28-.357-.72-.597-1.631-.729-.93-.134-2.192-.136-3.985-.136h-4.63c-1.793 0-3.055.002-3.985.136" clip-rule="evenodd"></path>
  </symbol>
  <symbol xmlns="http://www.w3.org/2000/svg" fill="none" viewBox="0 0 35 33" id="ear">
    <path stroke="currentColor" stroke-linecap="round" stroke-width="3" d="M9.748 1.5a16.001 16.001 0 1 0 23.243 18.002A16.004 16.004 0 0 0 25.252 1.5"></path>
  </symbol>
</svg>